<svg width="50" height="44" viewBox="0 0 50 44" fill="none" xmlns="http://www.w3.org/2000/svg">
<path d="M47.371 27.0089H46.0246C45.52 27.0089 45.0194 27.0472 44.5208 27.1239L30.298 16.4579L33.7054 13.1959C34.5108 12.4248 34.539 11.145 33.7679 10.3416C32.9948 9.53625 31.7151 9.51 30.9137 10.2791L22.4903 18.3432C22.0704 18.7631 21.4992 18.979 20.8997 18.9286C20.2981 18.8801 19.7693 18.5753 19.4079 18.0707C18.8549 17.3036 19.0244 16.1026 19.7471 15.3779L29.2403 6.43776C31.0389 4.74823 33.8507 4.33443 36.0509 5.43858L40.7259 7.77607C42.1187 8.47247 43.6811 8.83984 45.2374 8.83984H47.369C48.4852 8.83984 49.3875 7.93755 49.3875 6.82129C49.3875 5.70503 48.4852 4.80273 47.369 4.80273H45.2374C44.3028 4.80273 43.3641 4.58271 42.5285 4.16487L37.8575 1.82739C34.1757 -0.0155554 29.4745 0.668734 26.4709 3.49875L25.2234 4.67355L23.8104 3.38571C21.9554 1.69618 19.5533 0.765625 16.9675 0.765625C15.4112 0.765625 13.8589 1.133 12.4722 1.82537L7.80125 4.16285C6.96355 4.58069 6.02492 4.80072 5.09033 4.80072H2.96277C1.84651 4.80072 0.944218 5.70301 0.944218 6.81927C0.944218 7.93553 1.84651 8.83783 2.96277 8.83783H5.09437C6.65067 8.83783 8.21303 8.46843 9.60786 7.77405L14.2828 5.43656C16.3458 4.39902 19.2444 4.6796 21.0934 6.36913L22.2783 7.44906L16.9372 12.4793C14.7713 14.6432 14.4261 18.0646 16.1338 20.4284C17.1835 21.8878 19.2687 22.9697 21.0672 22.9697C22.6679 22.9697 24.204 22.3399 25.3142 21.2277L27.3449 19.2838L40.1546 28.8901C40.0921 28.9346 27.6436 38.2683 27.6436 38.2683C26.1842 39.4028 24.1475 39.4028 22.6578 38.2461L10.3628 29.0254C8.62886 27.7234 6.47708 27.0068 4.30713 27.0068H2.96075C1.84449 27.0068 0.9422 27.9091 0.9422 29.0254C0.9422 30.1417 1.84449 31.0439 2.96075 31.0439H4.30713C5.6091 31.0439 6.89896 31.4739 7.94053 32.2551L20.2073 41.4557C21.6707 42.5941 23.4249 43.1633 25.175 43.1633C26.9149 43.1633 28.6529 42.6002 30.0942 41.4779L42.3932 32.2571C43.4328 31.4759 44.7226 31.046 46.0246 31.046H47.371C48.4872 31.046 49.3895 30.1437 49.3895 29.0274C49.3895 27.9111 48.4872 27.0089 47.371 27.0089Z" fill="black"/>
</svg>
